solid OpenSCAD_Model
  facet normal 0 0 1
    outer loop
      vertex -1 10.5 1
      vertex 0 10.5 1
      vertex -1 13.5 1
    endloop
  endfacet
  facet normal 0 1 0
    outer loop
      vertex -1 10.5 1
      vertex 0 10.5 26
      vertex 0 10.5 1
    endloop
  endfacet
  facet normal 0 1 0
    outer loop
      vertex -1 10.5 1
      vertex -1 10.5 26
      vertex 0 10.5 26
    endloop
  endfacet
  facet normal 0 0 1
    outer loop
      vertex 0 10.5 1
      vertex 0 13.5 1
      vertex -1 13.5 1
    endloop
  endfacet
  facet normal 0 -1 0
    outer loop
      vertex -1 13.5 1
      vertex 0 13.5 1
      vertex -1 13.5 26
    endloop
  endfacet
  facet normal 0 -1 0
    outer loop
      vertex 0 13.5 1
      vertex 0 13.5 26
      vertex -1 13.5 26
    endloop
  endfacet
  facet normal 0 0 1
    outer loop
      vertex 80 10.5 1
      vertex 79 13.5 1
      vertex 79 10.5 1
    endloop
  endfacet
  facet normal 0 1 0
    outer loop
      vertex 80 10.5 1
      vertex 79 10.5 1
      vertex 80 10.5 26
    endloop
  endfacet
  facet normal 0 1 0
    outer loop
      vertex 79 10.5 1
      vertex 79 10.5 26
      vertex 80 10.5 26
    endloop
  endfacet
  facet normal 0 0 1
    outer loop
      vertex 80 10.5 1
      vertex 80 13.5 1
      vertex 79 13.5 1
    endloop
  endfacet
  facet normal 0 -1 0
    outer loop
      vertex 80 13.5 1
      vertex 79 13.5 26
      vertex 79 13.5 1
    endloop
  endfacet
  facet normal 0 -1 0
    outer loop
      vertex 80 13.5 1
      vertex 80 13.5 26
      vertex 79 13.5 26
    endloop
  endfacet
  facet normal 0 0 1
    outer loop
      vertex -1 16.5 1
      vertex 0 16.5 1
      vertex -1 19.5 1
    endloop
  endfacet
  facet normal 0 0 1
    outer loop
      vertex 0 16.5 1
      vertex 0 19.5 1
      vertex -1 19.5 1
    endloop
  endfacet
  facet normal 0 1 0
    outer loop
      vertex -1 16.5 1
      vertex 0 16.5 26
      vertex 0 16.5 1
    endloop
  endfacet
  facet normal 0 -1 0
    outer loop
      vertex -1 19.5 1
      vertex 0 19.5 1
      vertex -1 19.5 26
    endloop
  endfacet
  facet normal 0 1 0
    outer loop
      vertex -1 16.5 1
      vertex -1 16.5 26
      vertex 0 16.5 26
    endloop
  endfacet
  facet normal 0 -1 0
    outer loop
      vertex 0 19.5 1
      vertex 0 19.5 26
      vertex -1 19.5 26
    endloop
  endfacet
  facet normal 0 0 1
    outer loop
      vertex 80 16.5 1
      vertex 79 19.5 1
      vertex 79 16.5 1
    endloop
  endfacet
  facet normal 0 0 1
    outer loop
      vertex 80 16.5 1
      vertex 80 19.5 1
      vertex 79 19.5 1
    endloop
  endfacet
  facet normal 0 1 0
    outer loop
      vertex 80 16.5 1
      vertex 79 16.5 1
      vertex 80 16.5 26
    endloop
  endfacet
  facet normal 0 -1 0
    outer loop
      vertex 80 19.5 1
      vertex 79 19.5 26
      vertex 79 19.5 1
    endloop
  endfacet
  facet normal 0 1 0
    outer loop
      vertex 79 16.5 1
      vertex 79 16.5 26
      vertex 80 16.5 26
    endloop
  endfacet
  facet normal 0 -1 0
    outer loop
      vertex 80 19.5 1
      vertex 80 19.5 26
      vertex 79 19.5 26
    endloop
  endfacet
  facet normal 0 0 1
    outer loop
      vertex -1 22.5 1
      vertex 0 22.5 1
      vertex -1 25.5 1
    endloop
  endfacet
  facet normal 0 0 1
    outer loop
      vertex 0 22.5 1
      vertex 0 25.5 1
      vertex -1 25.5 1
    endloop
  endfacet
  facet normal 0 1 0
    outer loop
      vertex -1 22.5 1
      vertex 0 22.5 26
      vertex 0 22.5 1
    endloop
  endfacet
  facet normal 0 1 0
    outer loop
      vertex -1 22.5 1
      vertex -1 22.5 26
      vertex 0 22.5 26
    endloop
  endfacet
  facet normal 0 -1 0
    outer loop
      vertex -1 25.5 1
      vertex 0 25.5 1
      vertex -1 25.5 26
    endloop
  endfacet
  facet normal 0 -1 0
    outer loop
      vertex 0 25.5 1
      vertex 0 25.5 26
      vertex -1 25.5 26
    endloop
  endfacet
  facet normal 0 0 1
    outer loop
      vertex 80 22.5 1
      vertex 79 25.5 1
      vertex 79 22.5 1
    endloop
  endfacet
  facet normal 0 0 1
    outer loop
      vertex 80 22.5 1
      vertex 80 25.5 1
      vertex 79 25.5 1
    endloop
  endfacet
  facet normal 0 1 0
    outer loop
      vertex 80 22.5 1
      vertex 79 22.5 1
      vertex 80 22.5 26
    endloop
  endfacet
  facet normal 0 1 0
    outer loop
      vertex 79 22.5 1
      vertex 79 22.5 26
      vertex 80 22.5 26
    endloop
  endfacet
  facet normal 0 -1 0
    outer loop
      vertex 80 25.5 1
      vertex 79 25.5 26
      vertex 79 25.5 1
    endloop
  endfacet
  facet normal 0 -1 0
    outer loop
      vertex 80 25.5 1
      vertex 80 25.5 26
      vertex 79 25.5 26
    endloop
  endfacet
  facet normal 0 0 1
    outer loop
      vertex -1 28.5 1
      vertex 0 28.5 1
      vertex -1 31.5 1
    endloop
  endfacet
  facet normal 0 0 1
    outer loop
      vertex 0 28.5 1
      vertex 0 31.5 1
      vertex -1 31.5 1
    endloop
  endfacet
  facet normal 0 1 0
    outer loop
      vertex -1 28.5 1
      vertex 0 28.5 26
      vertex 0 28.5 1
    endloop
  endfacet
  facet normal 0 -1 0
    outer loop
      vertex -1 31.5 1
      vertex 0 31.5 1
      vertex -1 31.5 26
    endloop
  endfacet
  facet normal 0 1 0
    outer loop
      vertex -1 28.5 1
      vertex -1 28.5 26
      vertex 0 28.5 26
    endloop
  endfacet
  facet normal 0 -1 0
    outer loop
      vertex 0 31.5 1
      vertex 0 31.5 26
      vertex -1 31.5 26
    endloop
  endfacet
  facet normal 0 0 1
    outer loop
      vertex 80 28.5 1
      vertex 79 31.5 1
      vertex 79 28.5 1
    endloop
  endfacet
  facet normal 0 0 1
    outer loop
      vertex 80 28.5 1
      vertex 80 31.5 1
      vertex 79 31.5 1
    endloop
  endfacet
  facet normal 0 1 0
    outer loop
      vertex 80 28.5 1
      vertex 79 28.5 1
      vertex 80 28.5 26
    endloop
  endfacet
  facet normal 0 -1 0
    outer loop
      vertex 80 31.5 1
      vertex 79 31.5 26
      vertex 79 31.5 1
    endloop
  endfacet
  facet normal 0 1 0
    outer loop
      vertex 79 28.5 1
      vertex 79 28.5 26
      vertex 80 28.5 26
    endloop
  endfacet
  facet normal 0 -1 0
    outer loop
      vertex 80 31.5 1
      vertex 80 31.5 26
      vertex 79 31.5 26
    endloop
  endfacet
  facet normal 0 0 1
    outer loop
      vertex -1 34.5 1
      vertex 0 34.5 1
      vertex -1 37.5 1
    endloop
  endfacet
  facet normal 0 0 1
    outer loop
      vertex 0 34.5 1
      vertex 0 37.5 1
      vertex -1 37.5 1
    endloop
  endfacet
  facet normal 0 1 0
    outer loop
      vertex -1 34.5 1
      vertex 0 34.5 26
      vertex 0 34.5 1
    endloop
  endfacet
  facet normal 0 1 0
    outer loop
      vertex -1 34.5 1
      vertex -1 34.5 26
      vertex 0 34.5 26
    endloop
  endfacet
  facet normal 0 -1 0
    outer loop
      vertex -1 37.5 1
      vertex 0 37.5 1
      vertex -1 37.5 26
    endloop
  endfacet
  facet normal 0 -1 0
    outer loop
      vertex 0 37.5 1
      vertex 0 37.5 26
      vertex -1 37.5 26
    endloop
  endfacet
  facet normal 0 0 1
    outer loop
      vertex 80 34.5 1
      vertex 79 37.5 1
      vertex 79 34.5 1
    endloop
  endfacet
  facet normal 0 0 1
    outer loop
      vertex 80 34.5 1
      vertex 80 37.5 1
      vertex 79 37.5 1
    endloop
  endfacet
  facet normal 0 1 0
    outer loop
      vertex 80 34.5 1
      vertex 79 34.5 1
      vertex 80 34.5 26
    endloop
  endfacet
  facet normal 0 1 0
    outer loop
      vertex 79 34.5 1
      vertex 79 34.5 26
      vertex 80 34.5 26
    endloop
  endfacet
  facet normal 0 -1 0
    outer loop
      vertex 80 37.5 1
      vertex 79 37.5 26
      vertex 79 37.5 1
    endloop
  endfacet
  facet normal 0 -1 0
    outer loop
      vertex 80 37.5 1
      vertex 80 37.5 26
      vertex 79 37.5 26
    endloop
  endfacet
  facet normal -1 0 0
    outer loop
      vertex -50 0.8786796554923058 0.8786796554923058
      vertex -50 1.8786796554923058 1.8786796554923058
      vertex -50 1.8519496992230415 0.22836140543222427
    endloop
  endfacet
  facet normal -1 0 0
    outer loop
      vertex -50 0.8786796554923058 0.8786796554923058
      vertex -50 1.2283614054322243 2.8519496992230415
      vertex -50 1.8786796554923058 1.8786796554923058
    endloop
  endfacet
  facet normal -1 0 0
    outer loop
      vertex -50 1.8519496992230415 0.22836140543222427
      vertex -50 1.8786796554923058 1.8786796554923058
      vertex -50 2.8519496992230415 1.2283614054322243
    endloop
  endfacet
  facet normal -1 0 0
    outer loop
      vertex -50 1.8519496992230415 0.22836140543222427
      vertex -50 2.8519496992230415 1.2283614054322243
      vertex -50 3 0
    endloop
  endfacet
  facet normal -1 0 0
    outer loop
      vertex -50 0.8786796554923058 0.8786796554923058
      vertex -50 1 4
      vertex -50 1.2283614054322243 2.8519496992230415
    endloop
  endfacet
  facet normal -1 0 0
    outer loop
      vertex -50 3 0
      vertex -50 2.8519496992230415 1.2283614054322243
      vertex -50 4 1
    endloop
  endfacet
  facet normal 0 -0.5555702317866436 -0.8314696131263818
    outer loop
      vertex -50 0.8786796554923058 0.8786796554923058
      vertex -50 1.8519496992230415 0.22836140543222427
      vertex 0 0.8786796554923058 0.8786796554923058
    endloop
  endfacet
  facet normal 0 -0.8314696131263818 -0.5555702317866436
    outer loop
      vertex -50 0.8786796554923058 0.8786796554923058
      vertex 0 0.22836140543222427 1.8519496992230415
      vertex -50 0.22836140543222427 1.8519496992230415
    endloop
  endfacet
  facet normal 0 -0.19509032385180275 -0.9807852800380921
    outer loop
      vertex -50 1.8519496992230415 0.22836140543222427
      vertex -50 3 0
      vertex 0 1.8519496992230415 0.22836140543222427
    endloop
  endfacet
  facet normal 0 -0.9807852800380921 -0.19509032385180275
    outer loop
      vertex -50 0.22836140543222427 1.8519496992230415
      vertex 0 0 3
      vertex -50 0 3
    endloop
  endfacet
  facet normal -1 0 0
    outer loop
      vertex -50 0.8786796554923058 0.8786796554923058
      vertex -50 0.22836140543222427 1.8519496992230415
      vertex -50 1 26
    endloop
  endfacet
  facet normal 0 -0.8314696131263818 -0.5555702317866436
    outer loop
      vertex -50 0.8786796554923058 0.8786796554923058
      vertex 0 0.8786796554923058 0.8786796554923058
      vertex 0 0.22836140543222427 1.8519496992230415
    endloop
  endfacet
  facet normal 0 -0.5555702317866436 -0.8314696131263818
    outer loop
      vertex -50 1.8519496992230415 0.22836140543222427
      vertex 0 1.8519496992230415 0.22836140543222427
      vertex 0 0.8786796554923058 0.8786796554923058
    endloop
  endfacet
  facet normal 0 -0.9807852800380921 -0.19509032385180275
    outer loop
      vertex -50 0.22836140543222427 1.8519496992230415
      vertex 0 0.22836140543222427 1.8519496992230415
      vertex 0 0 3
    endloop
  endfacet
  facet normal 0 -0.19509032385180275 -0.9807852800380921
    outer loop
      vertex -50 3 0
      vertex 0 3 0
      vertex 0 1.8519496992230415 0.22836140543222427
    endloop
  endfacet
  facet normal -1 0 0
    outer loop
      vertex -50 0.22836140543222427 1.8519496992230415
      vertex -50 0 3
      vertex -50 1 26
    endloop
  endfacet
  facet normal -1 0 0
    outer loop
      vertex -50 0.8786796554923058 0.8786796554923058
      vertex -50 1 26
      vertex -50 1 4
    endloop
  endfacet
  facet normal 0 -1 0
    outer loop
      vertex -50 0 3
      vertex 0 0 3
      vertex -50 0 26
    endloop
  endfacet
  facet normal -1 0 0
    outer loop
      vertex -50 0 3
      vertex -50 0 26
      vertex -50 1 26
    endloop
  endfacet
  facet normal 0 -1 0
    outer loop
      vertex -50 0 26
      vertex 0 0 3
      vertex 0 0 26
    endloop
  endfacet
  facet normal -1 0 0
    outer loop
      vertex -50 3 0
      vertex -50 4 1
      vertex -50 46 1
    endloop
  endfacet
  facet normal 0 0 -1
    outer loop
      vertex -50 3 0
      vertex -50 47 0
      vertex 0 3 0
    endloop
  endfacet
  facet normal 0 0 -1
    outer loop
      vertex -50 47 0
      vertex 0 9 0
      vertex 0 3 0
    endloop
  endfacet
  facet normal 1 0 0
    outer loop
      vertex 0 0.8786796554923058 0.8786796554923058
      vertex 0 0 26
      vertex 0 0.22836140543222427 1.8519496992230415
    endloop
  endfacet
  facet normal 1 0 0
    outer loop
      vertex 0 0.8786796554923058 0.8786796554923058
      vertex 0 1.8519496992230415 0.22836140543222427
      vertex 0 0 26
    endloop
  endfacet
  facet normal 1 0 0
    outer loop
      vertex 0 1.8519496992230415 0.22836140543222427
      vertex 0 3 0
      vertex 0 0 26
    endloop
  endfacet
  facet normal 1 0 0
    outer loop
      vertex 0 10.5 1
      vertex 0 9 0
      vertex 0 13.5 1
    endloop
  endfacet
  facet normal 1 0 0
    outer loop
      vertex 0 10.5 1
      vertex 0 10.5 26
      vertex 0 9 0
    endloop
  endfacet
  facet normal 1 0 0
    outer loop
      vertex 0 0.22836140543222427 1.8519496992230415
      vertex 0 0 26
      vertex 0 0 3
    endloop
  endfacet
  facet normal 1 0 0
    outer loop
      vertex 0 0 26
      vertex 0 3 0
      vertex 0 3 26
    endloop
  endfacet
  facet normal 1 0 0
    outer loop
      vertex 0 10.5 26
      vertex 0 9 26
      vertex 0 9 0
    endloop
  endfacet
  facet normal 1 0 0
    outer loop
      vertex 0 13.5 1
      vertex 0 9 0
      vertex 0 16.5 1
    endloop
  endfacet
  facet normal 1 0 0
    outer loop
      vertex 0 16.5 1
      vertex 0 9 0
      vertex 0 19.5 1
    endloop
  endfacet
  facet normal 1 0 0
    outer loop
      vertex 0 19.5 1
      vertex 0 9 0
      vertex 0 22.5 1
    endloop
  endfacet
  facet normal 1 0 0
    outer loop
      vertex 0 13.5 1
      vertex 0 16.5 1
      vertex 0 16.5 26
    endloop
  endfacet
  facet normal 1 0 0
    outer loop
      vertex 0 22.5 1
      vertex 0 9 0
      vertex 0 25.5 1
    endloop
  endfacet
  facet normal 1 0 0
    outer loop
      vertex 0 25.5 1
      vertex 0 9 0
      vertex 0 28.5 1
    endloop
  endfacet
  facet normal 1 0 0
    outer loop
      vertex 0 28.5 1
      vertex 0 9 0
      vertex 0 31.5 1
    endloop
  endfacet
  facet normal 1 0 0
    outer loop
      vertex 0 19.5 1
      vertex 0 22.5 1
      vertex 0 22.5 26
    endloop
  endfacet
  facet normal 1 0 0
    outer loop
      vertex 0 13.5 1
      vertex 0 16.5 26
      vertex 0 13.5 26
    endloop
  endfacet
  facet normal 1 0 0
    outer loop
      vertex 0 19.5 1
      vertex 0 22.5 26
      vertex 0 19.5 26
    endloop
  endfacet
  facet normal -1 0 0
    outer loop
      vertex -50 3 0
      vertex -50 46 1
      vertex -50 47 0
    endloop
  endfacet
  facet normal 0 0 -1
    outer loop
      vertex -50 47 0
      vertex 0 41 0
      vertex 0 9 0
    endloop
  endfacet
  facet normal -1 0 0
    outer loop
      vertex -50 46 1
      vertex -50 47.14805030077696 1.2283614054322243
      vertex -50 47 0
    endloop
  endfacet
  facet normal -1 0 0
    outer loop
      vertex -50 47 0
      vertex -50 47.14805030077696 1.2283614054322243
      vertex -50 48.14805030077696 0.22836140543222427
    endloop
  endfacet
  facet normal -1 0 0
    outer loop
      vertex -50 48.14805030077696 0.22836140543222427
      vertex -50 47.14805030077696 1.2283614054322243
      vertex -50 48.121320344507694 1.8786796554923058
    endloop
  endfacet
  facet normal -1 0 0
    outer loop
      vertex -50 48.14805030077696 0.22836140543222427
      vertex -50 48.121320344507694 1.8786796554923058
      vertex -50 48.771638594567776 2.8519496992230415
    endloop
  endfacet
  facet normal -1 0 0
    outer loop
      vertex -50 48.14805030077696 0.22836140543222427
      vertex -50 48.771638594567776 2.8519496992230415
      vertex -50 49.121320344507694 0.8786796554923058
    endloop
  endfacet
  facet normal -1 0 0
    outer loop
      vertex -50 49.121320344507694 0.8786796554923058
      vertex -50 48.771638594567776 2.8519496992230415
      vertex -50 49 4
    endloop
  endfacet
  facet normal 0 0.19509032385180275 -0.9807852800380921
    outer loop
      vertex -50 47 0
      vertex -50 48.14805030077696 0.22836140543222427
      vertex 0 47 0
    endloop
  endfacet
  facet normal 0 0.5555702317866436 -0.8314696131263818
    outer loop
      vertex -50 48.14805030077696 0.22836140543222427
      vertex -50 49.121320344507694 0.8786796554923058
      vertex 0 48.14805030077696 0.22836140543222427
    endloop
  endfacet
  facet normal 0 0.8314696131263818 -0.5555702317866436
    outer loop
      vertex -50 49.121320344507694 0.8786796554923058
      vertex -50 49.771638594567776 1.8519496992230415
      vertex 0 49.121320344507694 0.8786796554923058
    endloop
  endfacet
  facet normal 0 0.9807852800380921 -0.19509032385180275
    outer loop
      vertex -50 49.771638594567776 1.8519496992230415
      vertex -50 50 3
      vertex 0 49.771638594567776 1.8519496992230415
    endloop
  endfacet
  facet normal -1 0 0
    outer loop
      vertex -50 49.121320344507694 0.8786796554923058
      vertex -50 50 26
      vertex -50 49.771638594567776 1.8519496992230415
    endloop
  endfacet
  facet normal 0 0 -1
    outer loop
      vertex -50 47 0
      vertex 0 47 0
      vertex 0 41 0
    endloop
  endfacet
  facet normal 0 0.19509032385180275 -0.9807852800380921
    outer loop
      vertex -50 48.14805030077696 0.22836140543222427
      vertex 0 48.14805030077696 0.22836140543222427
      vertex 0 47 0
    endloop
  endfacet
  facet normal 0 0.5555702317866436 -0.8314696131263818
    outer loop
      vertex -50 49.121320344507694 0.8786796554923058
      vertex 0 49.121320344507694 0.8786796554923058
      vertex 0 48.14805030077696 0.22836140543222427
    endloop
  endfacet
  facet normal 0 0.8314696131263818 -0.5555702317866436
    outer loop
      vertex -50 49.771638594567776 1.8519496992230415
      vertex 0 49.771638594567776 1.8519496992230415
      vertex 0 49.121320344507694 0.8786796554923058
    endloop
  endfacet
  facet normal 0 0.9807852800380921 -0.19509032385180275
    outer loop
      vertex -50 50 3
      vertex 0 50 3
      vertex 0 49.771638594567776 1.8519496992230415
    endloop
  endfacet
  facet normal -1 0 0
    outer loop
      vertex -50 49.121320344507694 0.8786796554923058
      vertex -50 49 4
      vertex -50 50 26
    endloop
  endfacet
  facet normal -1 0 0
    outer loop
      vertex -50 49.771638594567776 1.8519496992230415
      vertex -50 50 26
      vertex -50 50 3
    endloop
  endfacet
  facet normal -1 0 0
    outer loop
      vertex -50 49 4
      vertex -50 49 26
      vertex -50 50 26
    endloop
  endfacet
  facet normal 0 1 0
    outer loop
      vertex -50 50 3
      vertex -50 50 26
      vertex 0 50 26
    endloop
  endfacet
  facet normal 0 1 0
    outer loop
      vertex -50 50 3
      vertex 0 50 26
      vertex 0 50 3
    endloop
  endfacet
  facet normal 1 0 0
    outer loop
      vertex 0 31.5 1
      vertex 0 9 0
      vertex 0 34.5 1
    endloop
  endfacet
  facet normal 1 0 0
    outer loop
      vertex 0 34.5 1
      vertex 0 9 0
      vertex 0 41 0
    endloop
  endfacet
  facet normal 1 0 0
    outer loop
      vertex 0 25.5 1
      vertex 0 28.5 1
      vertex 0 28.5 26
    endloop
  endfacet
  facet normal 1 0 0
    outer loop
      vertex 0 31.5 1
      vertex 0 34.5 1
      vertex 0 34.5 26
    endloop
  endfacet
  facet normal 1 0 0
    outer loop
      vertex 0 25.5 1
      vertex 0 28.5 26
      vertex 0 25.5 26
    endloop
  endfacet
  facet normal 1 0 0
    outer loop
      vertex 0 31.5 1
      vertex 0 34.5 26
      vertex 0 31.5 26
    endloop
  endfacet
  facet normal 1 0 0
    outer loop
      vertex 0 34.5 1
      vertex 0 41 0
      vertex 0 37.5 1
    endloop
  endfacet
  facet normal 1 0 0
    outer loop
      vertex 0 37.5 1
      vertex 0 41 0
      vertex 0 41 26
    endloop
  endfacet
  facet normal 1 0 0
    outer loop
      vertex 0 48.14805030077696 0.22836140543222427
      vertex 0 49.121320344507694 0.8786796554923058
      vertex 0 47 0
    endloop
  endfacet
  facet normal 1 0 0
    outer loop
      vertex 0 49.121320344507694 0.8786796554923058
      vertex 0 49.771638594567776 1.8519496992230415
      vertex 0 47 0
    endloop
  endfacet
  facet normal 1 0 0
    outer loop
      vertex 0 49.771638594567776 1.8519496992230415
      vertex 0 50 3
      vertex 0 47 0
    endloop
  endfacet
  facet normal 1 0 0
    outer loop
      vertex 0 37.5 1
      vertex 0 41 26
      vertex 0 37.5 26
    endloop
  endfacet
  facet normal 1 0 0
    outer loop
      vertex 0 50 3
      vertex 0 50 26
      vertex 0 47 0
    endloop
  endfacet
  facet normal 1 0 0
    outer loop
      vertex 0 50 26
      vertex 0 47 26
      vertex 0 47 0
    endloop
  endfacet
  facet normal -1 0 0
    outer loop
      vertex 30 1.8519496992230415 0.22836140543222427
      vertex 30 0.8786796554923058 0.8786796554923058
      vertex 30 1.8786796554923058 1.8786796554923058
    endloop
  endfacet
  facet normal -1 0 0
    outer loop
      vertex 30 0.8786796554923058 0.8786796554923058
      vertex 30 1.2283614054322243 2.8519496992230415
      vertex 30 1.8786796554923058 1.8786796554923058
    endloop
  endfacet
  facet normal -1 0 0
    outer loop
      vertex 30 1.8519496992230415 0.22836140543222427
      vertex 30 1.8786796554923058 1.8786796554923058
      vertex 30 2.8519496992230415 1.2283614054322243
    endloop
  endfacet
  facet normal -1 0 0
    outer loop
      vertex 30 1.8519496992230415 0.22836140543222427
      vertex 30 2.8519496992230415 1.2283614054322243
      vertex 30 3 0
    endloop
  endfacet
  facet normal -1 0 0
    outer loop
      vertex 30 0.8786796554923058 0.8786796554923058
      vertex 30 1 4
      vertex 30 1.2283614054322243 2.8519496992230415
    endloop
  endfacet
  facet normal -1 0 0
    outer loop
      vertex 30 3 0
      vertex 30 2.8519496992230415 1.2283614054322243
      vertex 30 4 1
    endloop
  endfacet
  facet normal -1 0 0
    outer loop
      vertex 30 0.8786796554923058 0.8786796554923058
      vertex 30 0.22836140543222427 1.8519496992230415
      vertex 30 1 26
    endloop
  endfacet
  facet normal 0 -0.5555702317866436 -0.8314696131263818
    outer loop
      vertex 80 0.8786796554923058 0.8786796554923058
      vertex 30 0.8786796554923058 0.8786796554923058
      vertex 30 1.8519496992230415 0.22836140543222427
    endloop
  endfacet
  facet normal 0 -0.8314696131263818 -0.5555702317866436
    outer loop
      vertex 80 0.22836140543222427 1.8519496992230415
      vertex 30 0.22836140543222427 1.8519496992230415
      vertex 30 0.8786796554923058 0.8786796554923058
    endloop
  endfacet
  facet normal 0 -0.19509032385180275 -0.9807852800380921
    outer loop
      vertex 80 1.8519496992230415 0.22836140543222427
      vertex 30 1.8519496992230415 0.22836140543222427
      vertex 30 3 0
    endloop
  endfacet
  facet normal 0 -0.9807852800380921 -0.19509032385180275
    outer loop
      vertex 80 0 3
      vertex 30 0 3
      vertex 30 0.22836140543222427 1.8519496992230415
    endloop
  endfacet
  facet normal -1 0 0
    outer loop
      vertex 30 0.22836140543222427 1.8519496992230415
      vertex 30 0 3
      vertex 30 1 26
    endloop
  endfacet
  facet normal -1 0 0
    outer loop
      vertex 30 0.8786796554923058 0.8786796554923058
      vertex 30 1 26
      vertex 30 1 4
    endloop
  endfacet
  facet normal -1 0 0
    outer loop
      vertex 30 0 3
      vertex 30 0 26
      vertex 30 1 26
    endloop
  endfacet
  facet normal 0 -1 0
    outer loop
      vertex 80 0 3
      vertex 30 0 26
      vertex 30 0 3
    endloop
  endfacet
  facet normal -1 0 0
    outer loop
      vertex 30 3 0
      vertex 30 4 1
      vertex 30 46 1
    endloop
  endfacet
  facet normal 0 0 -1
    outer loop
      vertex 30 3 0
      vertex 30 47 0
      vertex 80 3 0
    endloop
  endfacet
  facet normal 0 -0.8314696131263818 -0.5555702317866436
    outer loop
      vertex 80 0.8786796554923058 0.8786796554923058
      vertex 80 0.22836140543222427 1.8519496992230415
      vertex 30 0.8786796554923058 0.8786796554923058
    endloop
  endfacet
  facet normal 0 -0.5555702317866436 -0.8314696131263818
    outer loop
      vertex 80 1.8519496992230415 0.22836140543222427
      vertex 80 0.8786796554923058 0.8786796554923058
      vertex 30 1.8519496992230415 0.22836140543222427
    endloop
  endfacet
  facet normal 0 -0.9807852800380921 -0.19509032385180275
    outer loop
      vertex 80 0.22836140543222427 1.8519496992230415
      vertex 80 0 3
      vertex 30 0.22836140543222427 1.8519496992230415
    endloop
  endfacet
  facet normal 0 -0.19509032385180275 -0.9807852800380921
    outer loop
      vertex 80 1.8519496992230415 0.22836140543222427
      vertex 30 3 0
      vertex 80 3 0
    endloop
  endfacet
  facet normal 1 0 0
    outer loop
      vertex 80 0.8786796554923058 0.8786796554923058
      vertex 80 0 26
      vertex 80 0.22836140543222427 1.8519496992230415
    endloop
  endfacet
  facet normal 1 0 0
    outer loop
      vertex 80 1.8519496992230415 0.22836140543222427
      vertex 80 0 26
      vertex 80 0.8786796554923058 0.8786796554923058
    endloop
  endfacet
  facet normal 1 0 0
    outer loop
      vertex 80 1.8519496992230415 0.22836140543222427
      vertex 80 3 0
      vertex 80 0 26
    endloop
  endfacet
  facet normal 1 0 0
    outer loop
      vertex 80 10.5 1
      vertex 80 9 0
      vertex 80 13.5 1
    endloop
  endfacet
  facet normal 1 0 0
    outer loop
      vertex 80 10.5 1
      vertex 80 10.5 26
      vertex 80 9 0
    endloop
  endfacet
  facet normal 1 0 0
    outer loop
      vertex 80 0.22836140543222427 1.8519496992230415
      vertex 80 0 26
      vertex 80 0 3
    endloop
  endfacet
  facet normal 0 -1 0
    outer loop
      vertex 80 0 3
      vertex 80 0 26
      vertex 30 0 26
    endloop
  endfacet
  facet normal 1 0 0
    outer loop
      vertex 80 0 26
      vertex 80 3 0
      vertex 80 3 26
    endloop
  endfacet
  facet normal 1 0 0
    outer loop
      vertex 80 10.5 26
      vertex 80 9 26
      vertex 80 9 0
    endloop
  endfacet
  facet normal 1 0 0
    outer loop
      vertex 80 13.5 1
      vertex 80 9 0
      vertex 80 16.5 1
    endloop
  endfacet
  facet normal 1 0 0
    outer loop
      vertex 80 16.5 1
      vertex 80 9 0
      vertex 80 19.5 1
    endloop
  endfacet
  facet normal 1 0 0
    outer loop
      vertex 80 19.5 1
      vertex 80 9 0
      vertex 80 22.5 1
    endloop
  endfacet
  facet normal 1 0 0
    outer loop
      vertex 80 13.5 1
      vertex 80 16.5 1
      vertex 80 16.5 26
    endloop
  endfacet
  facet normal 0 0 -1
    outer loop
      vertex 30 47 0
      vertex 80 9 0
      vertex 80 3 0
    endloop
  endfacet
  facet normal 1 0 0
    outer loop
      vertex 80 22.5 1
      vertex 80 9 0
      vertex 80 25.5 1
    endloop
  endfacet
  facet normal 1 0 0
    outer loop
      vertex 80 25.5 1
      vertex 80 9 0
      vertex 80 28.5 1
    endloop
  endfacet
  facet normal 1 0 0
    outer loop
      vertex 80 28.5 1
      vertex 80 9 0
      vertex 80 31.5 1
    endloop
  endfacet
  facet normal 1 0 0
    outer loop
      vertex 80 19.5 1
      vertex 80 22.5 1
      vertex 80 22.5 26
    endloop
  endfacet
  facet normal 1 0 0
    outer loop
      vertex 80 13.5 1
      vertex 80 16.5 26
      vertex 80 13.5 26
    endloop
  endfacet
  facet normal 1 0 0
    outer loop
      vertex 80 19.5 1
      vertex 80 22.5 26
      vertex 80 19.5 26
    endloop
  endfacet
  facet normal -1 0 0
    outer loop
      vertex 30 3 0
      vertex 30 46 1
      vertex 30 47 0
    endloop
  endfacet
  facet normal -1 0 0
    outer loop
      vertex 30 46 1
      vertex 30 47.14805030077696 1.2283614054322243
      vertex 30 47 0
    endloop
  endfacet
  facet normal -1 0 0
    outer loop
      vertex 30 47 0
      vertex 30 47.14805030077696 1.2283614054322243
      vertex 30 48.14805030077696 0.22836140543222427
    endloop
  endfacet
  facet normal -1 0 0
    outer loop
      vertex 30 48.14805030077696 0.22836140543222427
      vertex 30 47.14805030077696 1.2283614054322243
      vertex 30 48.121320344507694 1.8786796554923058
    endloop
  endfacet
  facet normal -1 0 0
    outer loop
      vertex 30 48.14805030077696 0.22836140543222427
      vertex 30 48.121320344507694 1.8786796554923058
      vertex 30 48.771638594567776 2.8519496992230415
    endloop
  endfacet
  facet normal -1 0 0
    outer loop
      vertex 30 48.14805030077696 0.22836140543222427
      vertex 30 48.771638594567776 2.8519496992230415
      vertex 30 49.121320344507694 0.8786796554923058
    endloop
  endfacet
  facet normal -1 0 0
    outer loop
      vertex 30 49.121320344507694 0.8786796554923058
      vertex 30 48.771638594567776 2.8519496992230415
      vertex 30 49 4
    endloop
  endfacet
  facet normal -1 0 0
    outer loop
      vertex 30 49.121320344507694 0.8786796554923058
      vertex 30 50 26
      vertex 30 49.771638594567776 1.8519496992230415
    endloop
  endfacet
  facet normal 0 0.19509032385180275 -0.9807852800380921
    outer loop
      vertex 30 47 0
      vertex 30 48.14805030077696 0.22836140543222427
      vertex 80 47 0
    endloop
  endfacet
  facet normal 0 0.5555702317866436 -0.8314696131263818
    outer loop
      vertex 80 48.14805030077696 0.22836140543222427
      vertex 30 48.14805030077696 0.22836140543222427
      vertex 30 49.121320344507694 0.8786796554923058
    endloop
  endfacet
  facet normal 0 0.8314696131263818 -0.5555702317866436
    outer loop
      vertex 80 49.121320344507694 0.8786796554923058
      vertex 30 49.121320344507694 0.8786796554923058
      vertex 30 49.771638594567776 1.8519496992230415
    endloop
  endfacet
  facet normal 0 0.9807852800380921 -0.19509032385180275
    outer loop
      vertex 80 49.771638594567776 1.8519496992230415
      vertex 30 49.771638594567776 1.8519496992230415
      vertex 30 50 3
    endloop
  endfacet
  facet normal -1 0 0
    outer loop
      vertex 30 49.121320344507694 0.8786796554923058
      vertex 30 49 4
      vertex 30 50 26
    endloop
  endfacet
  facet normal -1 0 0
    outer loop
      vertex 30 49.771638594567776 1.8519496992230415
      vertex 30 50 26
      vertex 30 50 3
    endloop
  endfacet
  facet normal -1 0 0
    outer loop
      vertex 30 49 4
      vertex 30 49 26
      vertex 30 50 26
    endloop
  endfacet
  facet normal 0 1 0
    outer loop
      vertex 30 50 3
      vertex 30 50 26
      vertex 80 50 26
    endloop
  endfacet
  facet normal 1 0 0
    outer loop
      vertex 80 31.5 1
      vertex 80 9 0
      vertex 80 34.5 1
    endloop
  endfacet
  facet normal 1 0 0
    outer loop
      vertex 80 34.5 1
      vertex 80 9 0
      vertex 80 41 0
    endloop
  endfacet
  facet normal 1 0 0
    outer loop
      vertex 80 25.5 1
      vertex 80 28.5 1
      vertex 80 28.5 26
    endloop
  endfacet
  facet normal 0 0 -1
    outer loop
      vertex 30 47 0
      vertex 80 41 0
      vertex 80 9 0
    endloop
  endfacet
  facet normal 1 0 0
    outer loop
      vertex 80 31.5 1
      vertex 80 34.5 1
      vertex 80 34.5 26
    endloop
  endfacet
  facet normal 1 0 0
    outer loop
      vertex 80 25.5 1
      vertex 80 28.5 26
      vertex 80 25.5 26
    endloop
  endfacet
  facet normal 1 0 0
    outer loop
      vertex 80 31.5 1
      vertex 80 34.5 26
      vertex 80 31.5 26
    endloop
  endfacet
  facet normal 1 0 0
    outer loop
      vertex 80 34.5 1
      vertex 80 41 0
      vertex 80 37.5 1
    endloop
  endfacet
  facet normal 1 0 0
    outer loop
      vertex 80 37.5 1
      vertex 80 41 0
      vertex 80 41 26
    endloop
  endfacet
  facet normal 0 0 -1
    outer loop
      vertex 30 47 0
      vertex 80 47 0
      vertex 80 41 0
    endloop
  endfacet
  facet normal 0 0.19509032385180275 -0.9807852800380921
    outer loop
      vertex 80 48.14805030077696 0.22836140543222427
      vertex 80 47 0
      vertex 30 48.14805030077696 0.22836140543222427
    endloop
  endfacet
  facet normal 0 0.5555702317866436 -0.8314696131263818
    outer loop
      vertex 80 48.14805030077696 0.22836140543222427
      vertex 30 49.121320344507694 0.8786796554923058
      vertex 80 49.121320344507694 0.8786796554923058
    endloop
  endfacet
  facet normal 0 0.8314696131263818 -0.5555702317866436
    outer loop
      vertex 80 49.121320344507694 0.8786796554923058
      vertex 30 49.771638594567776 1.8519496992230415
      vertex 80 49.771638594567776 1.8519496992230415
    endloop
  endfacet
  facet normal 0 0.9807852800380921 -0.19509032385180275
    outer loop
      vertex 80 49.771638594567776 1.8519496992230415
      vertex 30 50 3
      vertex 80 50 3
    endloop
  endfacet
  facet normal 1 0 0
    outer loop
      vertex 80 48.14805030077696 0.22836140543222427
      vertex 80 49.121320344507694 0.8786796554923058
      vertex 80 47 0
    endloop
  endfacet
  facet normal 1 0 0
    outer loop
      vertex 80 49.121320344507694 0.8786796554923058
      vertex 80 49.771638594567776 1.8519496992230415
      vertex 80 47 0
    endloop
  endfacet
  facet normal 1 0 0
    outer loop
      vertex 80 49.771638594567776 1.8519496992230415
      vertex 80 50 3
      vertex 80 47 0
    endloop
  endfacet
  facet normal 1 0 0
    outer loop
      vertex 80 37.5 1
      vertex 80 41 26
      vertex 80 37.5 26
    endloop
  endfacet
  facet normal 0 1 0
    outer loop
      vertex 80 50 3
      vertex 30 50 3
      vertex 80 50 26
    endloop
  endfacet
  facet normal 1 0 0
    outer loop
      vertex 80 50 3
      vertex 80 50 26
      vertex 80 47 0
    endloop
  endfacet
  facet normal 1 0 0
    outer loop
      vertex 80 50 26
      vertex 80 47 26
      vertex 80 47 0
    endloop
  endfacet
  facet normal 0 0.5555702317866436 0.8314696131263819
    outer loop
      vertex -50 1.8786796554923058 1.8786796554923058
      vertex -1 1.8786796554923058 1.8786796554923058
      vertex -50 2.8519496992230415 1.2283614054322243
    endloop
  endfacet
  facet normal 0 0.8314696131263819 0.5555702317866436
    outer loop
      vertex -50 1.8786796554923058 1.8786796554923058
      vertex -50 1.2283614054322243 2.8519496992230415
      vertex -1 1.2283614054322243 2.8519496992230415
    endloop
  endfacet
  facet normal 0 0.9807852800380921 0.19509032385180275
    outer loop
      vertex -50 1.2283614054322243 2.8519496992230415
      vertex -50 1 4
      vertex -1 1 4
    endloop
  endfacet
  facet normal 0 0.19509032385180275 0.9807852800380921
    outer loop
      vertex -50 2.8519496992230415 1.2283614054322243
      vertex -1 2.8519496992230415 1.2283614054322243
      vertex -50 4 1
    endloop
  endfacet
  facet normal 0 0.8314696131263819 0.5555702317866436
    outer loop
      vertex -50 1.8786796554923058 1.8786796554923058
      vertex -1 1.2283614054322243 2.8519496992230415
      vertex -1 1.8786796554923058 1.8786796554923058
    endloop
  endfacet
  facet normal 0 0.5555702317866436 0.8314696131263819
    outer loop
      vertex -50 2.8519496992230415 1.2283614054322243
      vertex -1 1.8786796554923058 1.8786796554923058
      vertex -1 2.8519496992230415 1.2283614054322243
    endloop
  endfacet
  facet normal 0 0.9807852800380921 0.19509032385180275
    outer loop
      vertex -50 1.2283614054322243 2.8519496992230415
      vertex -1 1 4
      vertex -1 1.2283614054322243 2.8519496992230415
    endloop
  endfacet
  facet normal 0 0.19509032385180275 0.9807852800380921
    outer loop
      vertex -50 4 1
      vertex -1 2.8519496992230415 1.2283614054322243
      vertex -1 4 1
    endloop
  endfacet
  facet normal 0 1 0
    outer loop
      vertex -50 1 4
      vertex -50 1 26
      vertex -1 1 26
    endloop
  endfacet
  facet normal 0 1 0
    outer loop
      vertex -50 1 4
      vertex -1 1 26
      vertex -1 1 4
    endloop
  endfacet
  facet normal 0 0 1
    outer loop
      vertex -50 4 1
      vertex -1 4 1
      vertex -50 46 1
    endloop
  endfacet
  facet normal 0 0 1
    outer loop
      vertex -50 46 1
      vertex -1 4 1
      vertex -1 10.5 1
    endloop
  endfacet
  facet normal 0 0 1
    outer loop
      vertex -50 46 1
      vertex -1 10.5 1
      vertex -1 13.5 1
    endloop
  endfacet
  facet normal -1 0 0
    outer loop
      vertex -1 2.8519496992230415 1.2283614054322243
      vertex -1 1 26
      vertex -1 4 1
    endloop
  endfacet
  facet normal -1 0 0
    outer loop
      vertex -1 4 1
      vertex -1 1 26
      vertex -1 10.5 1
    endloop
  endfacet
  facet normal -1 0 0
    outer loop
      vertex -1 1.8786796554923058 1.8786796554923058
      vertex -1 1.2283614054322243 2.8519496992230415
      vertex -1 1 26
    endloop
  endfacet
  facet normal -1 0 0
    outer loop
      vertex -1 1.2283614054322243 2.8519496992230415
      vertex -1 1 4
      vertex -1 1 26
    endloop
  endfacet
  facet normal -1 0 0
    outer loop
      vertex -1 1.8786796554923058 1.8786796554923058
      vertex -1 1 26
      vertex -1 2.8519496992230415 1.2283614054322243
    endloop
  endfacet
  facet normal -1 0 0
    outer loop
      vertex -1 10.5 1
      vertex -1 1 26
      vertex -1 10.5 26
    endloop
  endfacet
  facet normal -1 0 0
    outer loop
      vertex -1 13.5 1
      vertex -1 13.5 26
      vertex -1 16.5 1
    endloop
  endfacet
  facet normal -1 0 0
    outer loop
      vertex -1 19.5 1
      vertex -1 19.5 26
      vertex -1 22.5 1
    endloop
  endfacet
  facet normal -1 0 0
    outer loop
      vertex -1 16.5 1
      vertex -1 13.5 26
      vertex -1 16.5 26
    endloop
  endfacet
  facet normal -1 0 0
    outer loop
      vertex -1 22.5 1
      vertex -1 19.5 26
      vertex -1 22.5 26
    endloop
  endfacet
  facet normal 0 0 1
    outer loop
      vertex -50 46 1
      vertex -1 13.5 1
      vertex -1 16.5 1
    endloop
  endfacet
  facet normal 0 0 1
    outer loop
      vertex -50 46 1
      vertex -1 16.5 1
      vertex -1 19.5 1
    endloop
  endfacet
  facet normal 0 0 1
    outer loop
      vertex -50 46 1
      vertex -1 19.5 1
      vertex -1 22.5 1
    endloop
  endfacet
  facet normal 0 0 1
    outer loop
      vertex -50 46 1
      vertex -1 22.5 1
      vertex -1 25.5 1
    endloop
  endfacet
  facet normal 0 0 1
    outer loop
      vertex -50 46 1
      vertex -1 25.5 1
      vertex -1 28.5 1
    endloop
  endfacet
  facet normal 0 0 1
    outer loop
      vertex -50 46 1
      vertex -1 28.5 1
      vertex -1 31.5 1
    endloop
  endfacet
  facet normal 0 0 1
    outer loop
      vertex -50 46 1
      vertex -1 31.5 1
      vertex -1 34.5 1
    endloop
  endfacet
  facet normal 0 -0.19509032385180275 0.9807852800380921
    outer loop
      vertex -50 46 1
      vertex -1 46 1
      vertex -50 47.14805030077696 1.2283614054322243
    endloop
  endfacet
  facet normal 0 -0.5555702317866436 0.8314696131263819
    outer loop
      vertex -50 47.14805030077696 1.2283614054322243
      vertex -1 47.14805030077696 1.2283614054322243
      vertex -50 48.121320344507694 1.8786796554923058
    endloop
  endfacet
  facet normal 0 -0.8314696131263819 0.5555702317866436
    outer loop
      vertex -50 48.121320344507694 1.8786796554923058
      vertex -1 48.121320344507694 1.8786796554923058
      vertex -50 48.771638594567776 2.8519496992230415
    endloop
  endfacet
  facet normal 0 -0.9807852800380921 0.19509032385180275
    outer loop
      vertex -50 48.771638594567776 2.8519496992230415
      vertex -1 48.771638594567776 2.8519496992230415
      vertex -50 49 4
    endloop
  endfacet
  facet normal 0 0 1
    outer loop
      vertex -50 46 1
      vertex -1 34.5 1
      vertex -1 37.5 1
    endloop
  endfacet
  facet normal 0 0 1
    outer loop
      vertex -50 46 1
      vertex -1 37.5 1
      vertex -1 46 1
    endloop
  endfacet
  facet normal 0 -0.19509032385180275 0.9807852800380921
    outer loop
      vertex -50 47.14805030077696 1.2283614054322243
      vertex -1 46 1
      vertex -1 47.14805030077696 1.2283614054322243
    endloop
  endfacet
  facet normal 0 -0.5555702317866436 0.8314696131263819
    outer loop
      vertex -50 48.121320344507694 1.8786796554923058
      vertex -1 47.14805030077696 1.2283614054322243
      vertex -1 48.121320344507694 1.8786796554923058
    endloop
  endfacet
  facet normal 0 -0.8314696131263819 0.5555702317866436
    outer loop
      vertex -50 48.771638594567776 2.8519496992230415
      vertex -1 48.121320344507694 1.8786796554923058
      vertex -1 48.771638594567776 2.8519496992230415
    endloop
  endfacet
  facet normal 0 -0.9807852800380921 0.19509032385180275
    outer loop
      vertex -50 49 4
      vertex -1 48.771638594567776 2.8519496992230415
      vertex -1 49 4
    endloop
  endfacet
  facet normal 0 -1 0
    outer loop
      vertex -50 49 4
      vertex -1 49 4
      vertex -50 49 26
    endloop
  endfacet
  facet normal 0 -1 0
    outer loop
      vertex -50 49 26
      vertex -1 49 4
      vertex -1 49 26
    endloop
  endfacet
  facet normal -1 0 0
    outer loop
      vertex -1 25.5 1
      vertex -1 25.5 26
      vertex -1 28.5 1
    endloop
  endfacet
  facet normal -1 0 0
    outer loop
      vertex -1 31.5 1
      vertex -1 31.5 26
      vertex -1 34.5 1
    endloop
  endfacet
  facet normal -1 0 0
    outer loop
      vertex -1 28.5 1
      vertex -1 25.5 26
      vertex -1 28.5 26
    endloop
  endfacet
  facet normal -1 0 0
    outer loop
      vertex -1 34.5 1
      vertex -1 31.5 26
      vertex -1 34.5 26
    endloop
  endfacet
  facet normal -1 0 0
    outer loop
      vertex -1 37.5 1
      vertex -1 37.5 26
      vertex -1 46 1
    endloop
  endfacet
  facet normal -1 0 0
    outer loop
      vertex -1 46 1
      vertex -1 37.5 26
      vertex -1 47.14805030077696 1.2283614054322243
    endloop
  endfacet
  facet normal -1 0 0
    outer loop
      vertex -1 47.14805030077696 1.2283614054322243
      vertex -1 37.5 26
      vertex -1 48.121320344507694 1.8786796554923058
    endloop
  endfacet
  facet normal -1 0 0
    outer loop
      vertex -1 48.121320344507694 1.8786796554923058
      vertex -1 37.5 26
      vertex -1 48.771638594567776 2.8519496992230415
    endloop
  endfacet
  facet normal -1 0 0
    outer loop
      vertex -1 48.771638594567776 2.8519496992230415
      vertex -1 37.5 26
      vertex -1 49 4
    endloop
  endfacet
  facet normal -1 0 0
    outer loop
      vertex -1 49 4
      vertex -1 37.5 26
      vertex -1 49 26
    endloop
  endfacet
  facet normal 0 0.5555702317866436 0.8314696131263819
    outer loop
      vertex 79 1.8786796554923058 1.8786796554923058
      vertex 30 2.8519496992230415 1.2283614054322243
      vertex 30 1.8786796554923058 1.8786796554923058
    endloop
  endfacet
  facet normal 0 0.8314696131263819 0.5555702317866436
    outer loop
      vertex 79 1.2283614054322243 2.8519496992230415
      vertex 30 1.8786796554923058 1.8786796554923058
      vertex 30 1.2283614054322243 2.8519496992230415
    endloop
  endfacet
  facet normal 0 0.9807852800380921 0.19509032385180275
    outer loop
      vertex 79 1 4
      vertex 30 1.2283614054322243 2.8519496992230415
      vertex 30 1 4
    endloop
  endfacet
  facet normal 0 0.19509032385180275 0.9807852800380921
    outer loop
      vertex 79 2.8519496992230415 1.2283614054322243
      vertex 30 4 1
      vertex 30 2.8519496992230415 1.2283614054322243
    endloop
  endfacet
  facet normal 0 1 0
    outer loop
      vertex 30 1 4
      vertex 30 1 26
      vertex 79 1 26
    endloop
  endfacet
  facet normal 0 0 1
    outer loop
      vertex 79 4 1
      vertex 30 46 1
      vertex 30 4 1
    endloop
  endfacet
  facet normal 0 0.8314696131263819 0.5555702317866436
    outer loop
      vertex 79 1.8786796554923058 1.8786796554923058
      vertex 30 1.8786796554923058 1.8786796554923058
      vertex 79 1.2283614054322243 2.8519496992230415
    endloop
  endfacet
  facet normal 0 0.5555702317866436 0.8314696131263819
    outer loop
      vertex 79 2.8519496992230415 1.2283614054322243
      vertex 30 2.8519496992230415 1.2283614054322243
      vertex 79 1.8786796554923058 1.8786796554923058
    endloop
  endfacet
  facet normal 0 0.9807852800380921 0.19509032385180275
    outer loop
      vertex 79 1.2283614054322243 2.8519496992230415
      vertex 30 1.2283614054322243 2.8519496992230415
      vertex 79 1 4
    endloop
  endfacet
  facet normal 0 0.19509032385180275 0.9807852800380921
    outer loop
      vertex 79 2.8519496992230415 1.2283614054322243
      vertex 79 4 1
      vertex 30 4 1
    endloop
  endfacet
  facet normal -1 0 0
    outer loop
      vertex 79 2.8519496992230415 1.2283614054322243
      vertex 79 1 26
      vertex 79 4 1
    endloop
  endfacet
  facet normal -1 0 0
    outer loop
      vertex 79 4 1
      vertex 79 1 26
      vertex 79 10.5 1
    endloop
  endfacet
  facet normal 0 1 0
    outer loop
      vertex 79 1 4
      vertex 30 1 4
      vertex 79 1 26
    endloop
  endfacet
  facet normal -1 0 0
    outer loop
      vertex 79 1.8786796554923058 1.8786796554923058
      vertex 79 1.2283614054322243 2.8519496992230415
      vertex 79 1 26
    endloop
  endfacet
  facet normal -1 0 0
    outer loop
      vertex 79 1.2283614054322243 2.8519496992230415
      vertex 79 1 4
      vertex 79 1 26
    endloop
  endfacet
  facet normal -1 0 0
    outer loop
      vertex 79 2.8519496992230415 1.2283614054322243
      vertex 79 1.8786796554923058 1.8786796554923058
      vertex 79 1 26
    endloop
  endfacet
  facet normal -1 0 0
    outer loop
      vertex 79 10.5 1
      vertex 79 1 26
      vertex 79 10.5 26
    endloop
  endfacet
  facet normal -1 0 0
    outer loop
      vertex 79 13.5 1
      vertex 79 13.5 26
      vertex 79 16.5 1
    endloop
  endfacet
  facet normal 0 0 1
    outer loop
      vertex 79 4 1
      vertex 79 10.5 1
      vertex 30 46 1
    endloop
  endfacet
  facet normal 0 0 1
    outer loop
      vertex 79 10.5 1
      vertex 79 13.5 1
      vertex 30 46 1
    endloop
  endfacet
  facet normal -1 0 0
    outer loop
      vertex 79 19.5 1
      vertex 79 19.5 26
      vertex 79 22.5 1
    endloop
  endfacet
  facet normal -1 0 0
    outer loop
      vertex 79 16.5 1
      vertex 79 13.5 26
      vertex 79 16.5 26
    endloop
  endfacet
  facet normal -1 0 0
    outer loop
      vertex 79 22.5 1
      vertex 79 19.5 26
      vertex 79 22.5 26
    endloop
  endfacet
  facet normal 0 -0.19509032385180275 0.9807852800380921
    outer loop
      vertex 79 46 1
      vertex 30 47.14805030077696 1.2283614054322243
      vertex 30 46 1
    endloop
  endfacet
  facet normal 0 -0.5555702317866436 0.8314696131263819
    outer loop
      vertex 79 47.14805030077696 1.2283614054322243
      vertex 30 48.121320344507694 1.8786796554923058
      vertex 30 47.14805030077696 1.2283614054322243
    endloop
  endfacet
  facet normal 0 -0.8314696131263819 0.5555702317866436
    outer loop
      vertex 79 48.121320344507694 1.8786796554923058
      vertex 30 48.771638594567776 2.8519496992230415
      vertex 30 48.121320344507694 1.8786796554923058
    endloop
  endfacet
  facet normal 0 -0.9807852800380921 0.19509032385180275
    outer loop
      vertex 79 48.771638594567776 2.8519496992230415
      vertex 30 49 4
      vertex 30 48.771638594567776 2.8519496992230415
    endloop
  endfacet
  facet normal 0 -1 0
    outer loop
      vertex 79 49 4
      vertex 30 49 26
      vertex 30 49 4
    endloop
  endfacet
  facet normal 0 0 1
    outer loop
      vertex 79 13.5 1
      vertex 79 16.5 1
      vertex 30 46 1
    endloop
  endfacet
  facet normal 0 0 1
    outer loop
      vertex 79 16.5 1
      vertex 79 19.5 1
      vertex 30 46 1
    endloop
  endfacet
  facet normal 0 0 1
    outer loop
      vertex 79 19.5 1
      vertex 79 22.5 1
      vertex 30 46 1
    endloop
  endfacet
  facet normal -1 0 0
    outer loop
      vertex 79 25.5 1
      vertex 79 25.5 26
      vertex 79 28.5 1
    endloop
  endfacet
  facet normal 0 0 1
    outer loop
      vertex 79 22.5 1
      vertex 79 25.5 1
      vertex 30 46 1
    endloop
  endfacet
  facet normal 0 0 1
    outer loop
      vertex 79 25.5 1
      vertex 79 28.5 1
      vertex 30 46 1
    endloop
  endfacet
  facet normal 0 0 1
    outer loop
      vertex 79 28.5 1
      vertex 79 31.5 1
      vertex 30 46 1
    endloop
  endfacet
  facet normal 0 0 1
    outer loop
      vertex 79 31.5 1
      vertex 79 34.5 1
      vertex 30 46 1
    endloop
  endfacet
  facet normal -1 0 0
    outer loop
      vertex 79 31.5 1
      vertex 79 31.5 26
      vertex 79 34.5 1
    endloop
  endfacet
  facet normal -1 0 0
    outer loop
      vertex 79 28.5 1
      vertex 79 25.5 26
      vertex 79 28.5 26
    endloop
  endfacet
  facet normal -1 0 0
    outer loop
      vertex 79 34.5 1
      vertex 79 31.5 26
      vertex 79 34.5 26
    endloop
  endfacet
  facet normal 0 0 1
    outer loop
      vertex 79 34.5 1
      vertex 79 37.5 1
      vertex 30 46 1
    endloop
  endfacet
  facet normal 0 0 1
    outer loop
      vertex 79 37.5 1
      vertex 79 46 1
      vertex 30 46 1
    endloop
  endfacet
  facet normal -1 0 0
    outer loop
      vertex 79 37.5 1
      vertex 79 37.5 26
      vertex 79 46 1
    endloop
  endfacet
  facet normal -1 0 0
    outer loop
      vertex 79 46 1
      vertex 79 37.5 26
      vertex 79 47.14805030077696 1.2283614054322243
    endloop
  endfacet
  facet normal 0 -0.19509032385180275 0.9807852800380921
    outer loop
      vertex 79 46 1
      vertex 79 47.14805030077696 1.2283614054322243
      vertex 30 47.14805030077696 1.2283614054322243
    endloop
  endfacet
  facet normal 0 -0.5555702317866436 0.8314696131263819
    outer loop
      vertex 79 47.14805030077696 1.2283614054322243
      vertex 79 48.121320344507694 1.8786796554923058
      vertex 30 48.121320344507694 1.8786796554923058
    endloop
  endfacet
  facet normal 0 -0.8314696131263819 0.5555702317866436
    outer loop
      vertex 79 48.121320344507694 1.8786796554923058
      vertex 79 48.771638594567776 2.8519496992230415
      vertex 30 48.771638594567776 2.8519496992230415
    endloop
  endfacet
  facet normal 0 -0.9807852800380921 0.19509032385180275
    outer loop
      vertex 79 48.771638594567776 2.8519496992230415
      vertex 79 49 4
      vertex 30 49 4
    endloop
  endfacet
  facet normal -1 0 0
    outer loop
      vertex 79 47.14805030077696 1.2283614054322243
      vertex 79 37.5 26
      vertex 79 48.121320344507694 1.8786796554923058
    endloop
  endfacet
  facet normal -1 0 0
    outer loop
      vertex 79 48.121320344507694 1.8786796554923058
      vertex 79 37.5 26
      vertex 79 48.771638594567776 2.8519496992230415
    endloop
  endfacet
  facet normal -1 0 0
    outer loop
      vertex 79 48.771638594567776 2.8519496992230415
      vertex 79 37.5 26
      vertex 79 49 4
    endloop
  endfacet
  facet normal 0 -1 0
    outer loop
      vertex 79 49 4
      vertex 79 49 26
      vertex 30 49 26
    endloop
  endfacet
  facet normal -1 0 0
    outer loop
      vertex 79 49 4
      vertex 79 37.5 26
      vertex 79 49 26
    endloop
  endfacet
  facet normal 0 0 1
    outer loop
      vertex -50 0 26
      vertex -1 1 26
      vertex -50 1 26
    endloop
  endfacet
  facet normal 0 0 1
    outer loop
      vertex -50 0 26
      vertex 0 0 26
      vertex -1 1 26
    endloop
  endfacet
  facet normal 0 0 1
    outer loop
      vertex -1 1 26
      vertex 0 0 26
      vertex -1 10.5 26
    endloop
  endfacet
  facet normal 0 0 1
    outer loop
      vertex 0 0 26
      vertex 0 3 26
      vertex -1 10.5 26
    endloop
  endfacet
  facet normal 0 0 1
    outer loop
      vertex -1 10.5 26
      vertex 0 3 26
      vertex 0 9 26
    endloop
  endfacet
  facet normal 0 0 1
    outer loop
      vertex -1 10.5 26
      vertex 0 9 26
      vertex 0 10.5 26
    endloop
  endfacet
  facet normal 0 0 1
    outer loop
      vertex -1 13.5 26
      vertex 0 13.5 26
      vertex -1 16.5 26
    endloop
  endfacet
  facet normal 0 0 1
    outer loop
      vertex 0 13.5 26
      vertex 0 16.5 26
      vertex -1 16.5 26
    endloop
  endfacet
  facet normal 0 0 1
    outer loop
      vertex -1 19.5 26
      vertex 0 19.5 26
      vertex -1 22.5 26
    endloop
  endfacet
  facet normal 0 0 1
    outer loop
      vertex 0 19.5 26
      vertex 0 22.5 26
      vertex -1 22.5 26
    endloop
  endfacet
  facet normal 0 0 1
    outer loop
      vertex -50 49 26
      vertex -1 49 26
      vertex -50 50 26
    endloop
  endfacet
  facet normal 0 0 1
    outer loop
      vertex -50 50 26
      vertex -1 49 26
      vertex 0 50 26
    endloop
  endfacet
  facet normal 0 0 1
    outer loop
      vertex -1 25.5 26
      vertex 0 25.5 26
      vertex -1 28.5 26
    endloop
  endfacet
  facet normal 0 0 1
    outer loop
      vertex 0 25.5 26
      vertex 0 28.5 26
      vertex -1 28.5 26
    endloop
  endfacet
  facet normal 0 0 1
    outer loop
      vertex -1 31.5 26
      vertex 0 31.5 26
      vertex -1 34.5 26
    endloop
  endfacet
  facet normal 0 0 1
    outer loop
      vertex 0 31.5 26
      vertex 0 34.5 26
      vertex -1 34.5 26
    endloop
  endfacet
  facet normal 0 0 1
    outer loop
      vertex -1 37.5 26
      vertex 0 37.5 26
      vertex -1 49 26
    endloop
  endfacet
  facet normal 0 0 1
    outer loop
      vertex 0 37.5 26
      vertex 0 41 26
      vertex -1 49 26
    endloop
  endfacet
  facet normal 0 0 1
    outer loop
      vertex -1 49 26
      vertex 0 41 26
      vertex 0 47 26
    endloop
  endfacet
  facet normal 0 0 1
    outer loop
      vertex -1 49 26
      vertex 0 47 26
      vertex 0 50 26
    endloop
  endfacet
  facet normal 0 0 1
    outer loop
      vertex 79 1 26
      vertex 30 1 26
      vertex 30 0 26
    endloop
  endfacet
  facet normal 0 0 1
    outer loop
      vertex 80 0 26
      vertex 79 1 26
      vertex 30 0 26
    endloop
  endfacet
  facet normal 0 0 1
    outer loop
      vertex 80 0 26
      vertex 79 10.5 26
      vertex 79 1 26
    endloop
  endfacet
  facet normal 0 0 1
    outer loop
      vertex 80 0 26
      vertex 80 3 26
      vertex 79 10.5 26
    endloop
  endfacet
  facet normal 0 0 1
    outer loop
      vertex 79 10.5 26
      vertex 80 3 26
      vertex 80 9 26
    endloop
  endfacet
  facet normal 0 0 1
    outer loop
      vertex 80 10.5 26
      vertex 79 10.5 26
      vertex 80 9 26
    endloop
  endfacet
  facet normal 0 0 1
    outer loop
      vertex 80 13.5 26
      vertex 79 16.5 26
      vertex 79 13.5 26
    endloop
  endfacet
  facet normal 0 0 1
    outer loop
      vertex 80 13.5 26
      vertex 80 16.5 26
      vertex 79 16.5 26
    endloop
  endfacet
  facet normal 0 0 1
    outer loop
      vertex 80 19.5 26
      vertex 79 22.5 26
      vertex 79 19.5 26
    endloop
  endfacet
  facet normal 0 0 1
    outer loop
      vertex 80 19.5 26
      vertex 80 22.5 26
      vertex 79 22.5 26
    endloop
  endfacet
  facet normal 0 0 1
    outer loop
      vertex 79 49 26
      vertex 30 50 26
      vertex 30 49 26
    endloop
  endfacet
  facet normal 0 0 1
    outer loop
      vertex 80 25.5 26
      vertex 79 28.5 26
      vertex 79 25.5 26
    endloop
  endfacet
  facet normal 0 0 1
    outer loop
      vertex 80 25.5 26
      vertex 80 28.5 26
      vertex 79 28.5 26
    endloop
  endfacet
  facet normal 0 0 1
    outer loop
      vertex 80 31.5 26
      vertex 79 34.5 26
      vertex 79 31.5 26
    endloop
  endfacet
  facet normal 0 0 1
    outer loop
      vertex 80 31.5 26
      vertex 80 34.5 26
      vertex 79 34.5 26
    endloop
  endfacet
  facet normal 0 0 1
    outer loop
      vertex 80 37.5 26
      vertex 79 49 26
      vertex 79 37.5 26
    endloop
  endfacet
  facet normal 0 0 1
    outer loop
      vertex 80 37.5 26
      vertex 80 41 26
      vertex 79 49 26
    endloop
  endfacet
  facet normal 0 0 1
    outer loop
      vertex 79 49 26
      vertex 80 50 26
      vertex 30 50 26
    endloop
  endfacet
  facet normal 0 0 1
    outer loop
      vertex 79 49 26
      vertex 80 41 26
      vertex 80 47 26
    endloop
  endfacet
  facet normal 0 0 1
    outer loop
      vertex 79 49 26
      vertex 80 47 26
      vertex 80 50 26
    endloop
  endfacet
  facet normal 0 0 -1
    outer loop
      vertex 20 3 0
      vertex 0 3 0
      vertex 20 9 0
    endloop
  endfacet
  facet normal 0 -1 0
    outer loop
      vertex 20 3 0
      vertex 20 3 26
      vertex 0 3 0
    endloop
  endfacet
  facet normal 1 0 0
    outer loop
      vertex 20 3 0
      vertex 20 9 0
      vertex 20 3 26
    endloop
  endfacet
  facet normal 0 0 -1
    outer loop
      vertex 20 9 0
      vertex 0 3 0
      vertex 0 9 0
    endloop
  endfacet
  facet normal 0 1 0
    outer loop
      vertex 20 9 0
      vertex 0 9 0
      vertex 0 9 26
    endloop
  endfacet
  facet normal 0 -1 0
    outer loop
      vertex 20 3 26
      vertex 0 3 26
      vertex 0 3 0
    endloop
  endfacet
  facet normal 0 1 0
    outer loop
      vertex 20 9 0
      vertex 0 9 26
      vertex 20 9 26
    endloop
  endfacet
  facet normal 1 0 0
    outer loop
      vertex 20 9 0
      vertex 20 9 26
      vertex 20 3 26
    endloop
  endfacet
  facet normal 0 0 1
    outer loop
      vertex 3 4.6 26
      vertex 0 9 26
      vertex 0 3 26
    endloop
  endfacet
  facet normal 0 0 1
    outer loop
      vertex 3 4.6 26
      vertex 3 7.3999999999999995 26
      vertex 0 9 26
    endloop
  endfacet
  facet normal 0 0 1
    outer loop
      vertex 3 4.6 26
      vertex 0 3 26
      vertex 17 4.6 26
    endloop
  endfacet
  facet normal 0 0 1
    outer loop
      vertex 20 3 26
      vertex 17 4.6 26
      vertex 0 3 26
    endloop
  endfacet
  facet normal 0 0 1
    outer loop
      vertex 20 3 26
      vertex 17 7.3999999999999995 26
      vertex 17 4.6 26
    endloop
  endfacet
  facet normal 0 0 1
    outer loop
      vertex 20 9 26
      vertex 0 9 26
      vertex 3 7.3999999999999995 26
    endloop
  endfacet
  facet normal 0 0 1
    outer loop
      vertex 20 9 26
      vertex 3 7.3999999999999995 26
      vertex 17 7.3999999999999995 26
    endloop
  endfacet
  facet normal 0 0 1
    outer loop
      vertex 20 3 26
      vertex 20 9 26
      vertex 17 7.3999999999999995 26
    endloop
  endfacet
  facet normal 0 0 -1
    outer loop
      vertex 100 3 0
      vertex 80 3 0
      vertex 100 9 0
    endloop
  endfacet
  facet normal 0 -1 0
    outer loop
      vertex 100 3 0
      vertex 100 3 26
      vertex 80 3 0
    endloop
  endfacet
  facet normal 1 0 0
    outer loop
      vertex 100 3 0
      vertex 100 9 0
      vertex 100 3 26
    endloop
  endfacet
  facet normal 0 0 -1
    outer loop
      vertex 100 9 0
      vertex 80 3 0
      vertex 80 9 0
    endloop
  endfacet
  facet normal 0 1 0
    outer loop
      vertex 100 9 0
      vertex 80 9 0
      vertex 80 9 26
    endloop
  endfacet
  facet normal 0 -1 0
    outer loop
      vertex 100 3 26
      vertex 80 3 26
      vertex 80 3 0
    endloop
  endfacet
  facet normal 0 1 0
    outer loop
      vertex 100 9 0
      vertex 80 9 26
      vertex 100 9 26
    endloop
  endfacet
  facet normal 1 0 0
    outer loop
      vertex 100 9 0
      vertex 100 9 26
      vertex 100 3 26
    endloop
  endfacet
  facet normal 0 0 1
    outer loop
      vertex 82 7.5 26
      vertex 80 9 26
      vertex 80 3 26
    endloop
  endfacet
  facet normal 0 0 1
    outer loop
      vertex 82 4.5 26
      vertex 82 7.5 26
      vertex 80 3 26
    endloop
  endfacet
  facet normal 0 0 1
    outer loop
      vertex 82 4.5 26
      vertex 80 3 26
      vertex 100 3 26
    endloop
  endfacet
  facet normal 0 0 1
    outer loop
      vertex 82 4.5 26
      vertex 100 3 26
      vertex 98 4.5 26
    endloop
  endfacet
  facet normal 0 0 1
    outer loop
      vertex 98 4.5 26
      vertex 100 3 26
      vertex 100 9 26
    endloop
  endfacet
  facet normal 0 0 1
    outer loop
      vertex 82 7.5 26
      vertex 98 7.5 26
      vertex 80 9 26
    endloop
  endfacet
  facet normal 0 0 1
    outer loop
      vertex 98 7.5 26
      vertex 100 9 26
      vertex 80 9 26
    endloop
  endfacet
  facet normal 0 0 1
    outer loop
      vertex 98 4.5 26
      vertex 100 9 26
      vertex 98 7.5 26
    endloop
  endfacet
  facet normal 0 0 -1
    outer loop
      vertex 20 41 0
      vertex 0 41 0
      vertex 20 47 0
    endloop
  endfacet
  facet normal 0 -1 0
    outer loop
      vertex 20 41 0
      vertex 20 41 26
      vertex 0 41 0
    endloop
  endfacet
  facet normal 1 0 0
    outer loop
      vertex 20 41 0
      vertex 20 47 0
      vertex 20 41 26
    endloop
  endfacet
  facet normal 0 0 -1
    outer loop
      vertex 20 47 0
      vertex 0 41 0
      vertex 0 47 0
    endloop
  endfacet
  facet normal 0 1 0
    outer loop
      vertex 20 47 0
      vertex 0 47 0
      vertex 0 47 26
    endloop
  endfacet
  facet normal 0 -1 0
    outer loop
      vertex 20 41 26
      vertex 0 41 26
      vertex 0 41 0
    endloop
  endfacet
  facet normal 0 1 0
    outer loop
      vertex 20 47 0
      vertex 0 47 26
      vertex 20 47 26
    endloop
  endfacet
  facet normal 1 0 0
    outer loop
      vertex 20 47 0
      vertex 20 47 26
      vertex 20 41 26
    endloop
  endfacet
  facet normal 0 0 1
    outer loop
      vertex 3 42.6 26
      vertex 0 47 26
      vertex 0 41 26
    endloop
  endfacet
  facet normal 0 0 1
    outer loop
      vertex 3 42.6 26
      vertex 3 45.4 26
      vertex 0 47 26
    endloop
  endfacet
  facet normal 0 0 1
    outer loop
      vertex 3 42.6 26
      vertex 0 41 26
      vertex 17 42.6 26
    endloop
  endfacet
  facet normal 0 0 1
    outer loop
      vertex 20 41 26
      vertex 17 42.6 26
      vertex 0 41 26
    endloop
  endfacet
  facet normal 0 0 1
    outer loop
      vertex 20 41 26
      vertex 17 45.4 26
      vertex 17 42.6 26
    endloop
  endfacet
  facet normal 0 0 1
    outer loop
      vertex 20 47 26
      vertex 0 47 26
      vertex 3 45.4 26
    endloop
  endfacet
  facet normal 0 0 1
    outer loop
      vertex 20 47 26
      vertex 3 45.4 26
      vertex 17 45.4 26
    endloop
  endfacet
  facet normal 0 0 1
    outer loop
      vertex 20 41 26
      vertex 20 47 26
      vertex 17 45.4 26
    endloop
  endfacet
  facet normal 0 0 -1
    outer loop
      vertex 100 41 0
      vertex 80 41 0
      vertex 100 47 0
    endloop
  endfacet
  facet normal 0 -1 0
    outer loop
      vertex 100 41 0
      vertex 100 41 26
      vertex 80 41 0
    endloop
  endfacet
  facet normal 1 0 0
    outer loop
      vertex 100 41 0
      vertex 100 47 0
      vertex 100 41 26
    endloop
  endfacet
  facet normal 0 0 -1
    outer loop
      vertex 100 47 0
      vertex 80 41 0
      vertex 80 47 0
    endloop
  endfacet
  facet normal 0 1 0
    outer loop
      vertex 100 47 0
      vertex 80 47 0
      vertex 80 47 26
    endloop
  endfacet
  facet normal 0 -1 0
    outer loop
      vertex 100 41 26
      vertex 80 41 26
      vertex 80 41 0
    endloop
  endfacet
  facet normal 1 0 0
    outer loop
      vertex 100 47 0
      vertex 100 47 26
      vertex 100 41 26
    endloop
  endfacet
  facet normal 0 1 0
    outer loop
      vertex 100 47 0
      vertex 80 47 26
      vertex 100 47 26
    endloop
  endfacet
  facet normal 0 0 1
    outer loop
      vertex 82 45.5 26
      vertex 80 47 26
      vertex 80 41 26
    endloop
  endfacet
  facet normal 0 0 1
    outer loop
      vertex 82 42.5 26
      vertex 82 45.5 26
      vertex 80 41 26
    endloop
  endfacet
  facet normal 0 0 1
    outer loop
      vertex 82 42.5 26
      vertex 80 41 26
      vertex 100 41 26
    endloop
  endfacet
  facet normal 0 0 1
    outer loop
      vertex 82 42.5 26
      vertex 100 41 26
      vertex 98 42.5 26
    endloop
  endfacet
  facet normal 0 0 1
    outer loop
      vertex 100 41 26
      vertex 100 47 26
      vertex 98 42.5 26
    endloop
  endfacet
  facet normal 0 0 1
    outer loop
      vertex 82 45.5 26
      vertex 98 45.5 26
      vertex 80 47 26
    endloop
  endfacet
  facet normal 0 0 1
    outer loop
      vertex 98 45.5 26
      vertex 100 47 26
      vertex 80 47 26
    endloop
  endfacet
  facet normal 0 0 1
    outer loop
      vertex 98 42.5 26
      vertex 100 47 26
      vertex 98 45.5 26
    endloop
  endfacet
  facet normal -1 0 0
    outer loop
      vertex 3 4.6 38.5
      vertex 3 7.3999999999999995 38.5
      vertex 3 4.6 26
    endloop
  endfacet
  facet normal -1 0 0
    outer loop
      vertex 3 7.3999999999999995 38.5
      vertex 3 7.3999999999999995 26
      vertex 3 4.6 26
    endloop
  endfacet
  facet normal 0 -1 0
    outer loop
      vertex 3 4.6 38.5
      vertex 3 4.6 26
      vertex 17 4.6 26
    endloop
  endfacet
  facet normal 1 0 0
    outer loop
      vertex 17 4.6 38.5
      vertex 17 4.6 26
      vertex 17 7.3999999999999995 26
    endloop
  endfacet
  facet normal 0 -1 0
    outer loop
      vertex 3 4.6 38.5
      vertex 17 4.6 26
      vertex 17 4.6 38.5
    endloop
  endfacet
  facet normal 0 0 1
    outer loop
      vertex 3 4.6 38.5
      vertex 17 4.6 38.5
      vertex 3 7.3999999999999995 38.5
    endloop
  endfacet
  facet normal 0 1 0
    outer loop
      vertex 17 7.3999999999999995 38.5
      vertex 17 7.3999999999999995 26
      vertex 3 7.3999999999999995 26
    endloop
  endfacet
  facet normal 0 1 0
    outer loop
      vertex 3 7.3999999999999995 38.5
      vertex 17 7.3999999999999995 38.5
      vertex 3 7.3999999999999995 26
    endloop
  endfacet
  facet normal 0 0 1
    outer loop
      vertex 3 7.3999999999999995 38.5
      vertex 17 4.6 38.5
      vertex 17 7.3999999999999995 38.5
    endloop
  endfacet
  facet normal 1 0 0
    outer loop
      vertex 17 4.6 38.5
      vertex 17 7.3999999999999995 26
      vertex 17 7.3999999999999995 38.5
    endloop
  endfacet
  facet normal -1 0 0
    outer loop
      vertex 3 42.6 38.5
      vertex 3 45.4 38.5
      vertex 3 42.6 26
    endloop
  endfacet
  facet normal -1 0 0
    outer loop
      vertex 3 45.4 38.5
      vertex 3 45.4 26
      vertex 3 42.6 26
    endloop
  endfacet
  facet normal 0 -1 0
    outer loop
      vertex 3 42.6 38.5
      vertex 3 42.6 26
      vertex 17 42.6 26
    endloop
  endfacet
  facet normal 1 0 0
    outer loop
      vertex 17 42.6 38.5
      vertex 17 42.6 26
      vertex 17 45.4 26
    endloop
  endfacet
  facet normal 0 -1 0
    outer loop
      vertex 3 42.6 38.5
      vertex 17 42.6 26
      vertex 17 42.6 38.5
    endloop
  endfacet
  facet normal 0 0 1
    outer loop
      vertex 3 42.6 38.5
      vertex 17 42.6 38.5
      vertex 3 45.4 38.5
    endloop
  endfacet
  facet normal 0 1 0
    outer loop
      vertex 17 45.4 38.5
      vertex 17 45.4 26
      vertex 3 45.4 26
    endloop
  endfacet
  facet normal 0 1 0
    outer loop
      vertex 3 45.4 38.5
      vertex 17 45.4 38.5
      vertex 3 45.4 26
    endloop
  endfacet
  facet normal 0 0 1
    outer loop
      vertex 3 45.4 38.5
      vertex 17 42.6 38.5
      vertex 17 45.4 38.5
    endloop
  endfacet
  facet normal 1 0 0
    outer loop
      vertex 17 42.6 38.5
      vertex 17 45.4 26
      vertex 17 45.4 38.5
    endloop
  endfacet
  facet normal 0 0 1
    outer loop
      vertex 82 4.5 1
      vertex 98 4.5 1
      vertex 98 7.5 1
    endloop
  endfacet
  facet normal 0 1 0
    outer loop
      vertex 82 4.5 1
      vertex 82 4.5 26
      vertex 98 4.5 1
    endloop
  endfacet
  facet normal -1 0 0
    outer loop
      vertex 98 4.5 1
      vertex 98 4.5 26
      vertex 98 7.5 1
    endloop
  endfacet
  facet normal 0 0 1
    outer loop
      vertex 82 4.5 1
      vertex 98 7.5 1
      vertex 82 7.5 1
    endloop
  endfacet
  facet normal 1 0 0
    outer loop
      vertex 82 4.5 1
      vertex 82 7.5 1
      vertex 82 7.5 26
    endloop
  endfacet
  facet normal 0 -1 0
    outer loop
      vertex 82 7.5 1
      vertex 98 7.5 1
      vertex 98 7.5 26
    endloop
  endfacet
  facet normal 1 0 0
    outer loop
      vertex 82 4.5 1
      vertex 82 7.5 26
      vertex 82 4.5 26
    endloop
  endfacet
  facet normal 0 1 0
    outer loop
      vertex 82 4.5 26
      vertex 98 4.5 26
      vertex 98 4.5 1
    endloop
  endfacet
  facet normal 0 -1 0
    outer loop
      vertex 82 7.5 1
      vertex 98 7.5 26
      vertex 82 7.5 26
    endloop
  endfacet
  facet normal -1 0 0
    outer loop
      vertex 98 7.5 1
      vertex 98 4.5 26
      vertex 98 7.5 26
    endloop
  endfacet
  facet normal 0 0 1
    outer loop
      vertex 82 42.5 1
      vertex 98 42.5 1
      vertex 98 45.5 1
    endloop
  endfacet
  facet normal 0 1 0
    outer loop
      vertex 82 42.5 1
      vertex 82 42.5 26
      vertex 98 42.5 1
    endloop
  endfacet
  facet normal -1 0 0
    outer loop
      vertex 98 42.5 1
      vertex 98 42.5 26
      vertex 98 45.5 1
    endloop
  endfacet
  facet normal 0 0 1
    outer loop
      vertex 82 42.5 1
      vertex 98 45.5 1
      vertex 82 45.5 1
    endloop
  endfacet
  facet normal 1 0 0
    outer loop
      vertex 82 42.5 1
      vertex 82 45.5 1
      vertex 82 45.5 26
    endloop
  endfacet
  facet normal 0 -1 0
    outer loop
      vertex 82 45.5 1
      vertex 98 45.5 1
      vertex 98 45.5 26
    endloop
  endfacet
  facet normal 1 0 0
    outer loop
      vertex 82 42.5 1
      vertex 82 45.5 26
      vertex 82 42.5 26
    endloop
  endfacet
  facet normal 0 1 0
    outer loop
      vertex 82 42.5 26
      vertex 98 42.5 26
      vertex 98 42.5 1
    endloop
  endfacet
  facet normal 0 -1 0
    outer loop
      vertex 82 45.5 1
      vertex 98 45.5 26
      vertex 82 45.5 26
    endloop
  endfacet
  facet normal -1 0 0
    outer loop
      vertex 98 45.5 1
      vertex 98 42.5 26
      vertex 98 45.5 26
    endloop
  endfacet
endsolid OpenSCAD_Model
