<?xml version="1.0" encoding="UTF-8" standalone="no"?>
<!-- Created with Inkscape (http://www.inkscape.org/) -->

<svg
   width="74.0mm"
   height="52.0mm"
   viewBox="0 0 74.0 52.0"
   id="SVGRoot"
   version="1.1"
   xml:space="preserve"
   inkscape:version="1.3.2 (1:1.3.2+202311252150+091e20ef0f)"
   sodipodi:docname="akatsuki-bortik.svg"
   xmlns:inkscape="http://www.inkscape.org/namespaces/inkscape"
   xmlns:sodipodi="http://sodipodi.sourceforge.net/DTD/sodipodi-0.dtd"
   xmlns="http://www.w3.org/2000/svg"
   xmlns:svg="http://www.w3.org/2000/svg"><sodipodi:namedview
     inkscape:document-units="mm"
     inkscape:zoom="4"
     inkscape:cx="141.25"
     inkscape:cy="99.250001"
     id="namedview1"
     pagecolor="#ffffff"
     bordercolor="#000000"
     borderopacity="0.25"
     inkscape:showpageshadow="2"
     inkscape:pageopacity="0.0"
     inkscape:pagecheckerboard="0"
     inkscape:deskcolor="#d1d1d1"
     showgrid="false"
     inkscape:window-width="1210"
     inkscape:window-height="960"
     inkscape:window-x="0"
     inkscape:window-y="0"
     inkscape:window-maximized="1"
     inkscape:current-layer="layer5"><inkscape:grid
       id="grid1"
       units="mm"
       originx="0"
       originy="0"
       spacingx="1"
       spacingy="1"
       empcolor="#0099e5"
       empopacity="0.30196078"
       color="#0099e5"
       opacity="0.14901961"
       empspacing="5"
       dotted="false"
       gridanglex="30"
       gridanglez="30"
       visible="false" /></sodipodi:namedview><defs
     id="defs1" /><g
     inkscape:groupmode="layer"
     id="layer5"
     inkscape:label="Слой 8"><path
       id="path3-2"
       style="display:inline;opacity:1;fill:none;stroke:#000000;stroke-width:0.264583px;stroke-linecap:butt;stroke-linejoin:miter;stroke-opacity:1"
       d="m 62.919415,31.102742 -6.855524,6.855523 h -1.837486 v 1.737492 l -5.201621,5.201619 h -6.92658 L 38.62768,41.426852 H 36.921777 L 35.149629,43.199 H 28.221015 L 22.994413,37.972397 H 19.510178 L 17.758711,36.220929 H 16.031062 L 12.594374,32.78424 V 31.102742 H 10.93034 V 17.289889 h 3.386099 l 3.45276,3.332096 h 1.748214 l 5.203042,-5.203041 h 3.465939 l 5.185341,-5.185343 h 8.455943 l 0.0385,1.734714 2.28019,0.01159 -0.01553,-1.720605 8.351395,-0.0295 5.230914,5.1968 -0.01106,3.468502 5.219515,5.230997 z m 0.987794,-7.584798 v 8.103383 l -7.367765,7.321 h -1.330928 v 1.257286 l -5.510387,5.55483 H 41.624591 L 38.456244,42.39515 h -1.144826 l -1.594057,1.640824 h -7.904588 l -5.293686,-5.203251 h -3.426713 l -1.609567,-1.7 H 15.656409 L 11.743934,33.156168 V 31.985645 H 9.9934464 l -0.056844,-15.81919 4.8335556,0.0043 3.506117,3.429894 0.925912,0.04289 5.258142,-5.363819 3.385,0.04032 5.025565,-4.9651043 9.6477,0.024029 V 11.276314 H 43.43895 V 9.3498169 l 9.44981,0.032298 5.821738,5.5473361 0.0031,3.508958 z" /></g></svg>
