<?xml version="1.0" encoding="UTF-8" standalone="no"?>
<!-- Created with Inkscape (http://www.inkscape.org/) -->

<svg
   width="74.0mm"
   height="52.0mm"
   viewBox="0 0 74.0 52.0"
   id="SVGRoot"
   version="1.1"
   xml:space="preserve"
   inkscape:version="1.3.2 (1:1.3.2+202311252150+091e20ef0f)"
   sodipodi:docname="akatsuki-perednyaya-chast-ramka.svg"
   xmlns:inkscape="http://www.inkscape.org/namespaces/inkscape"
   xmlns:sodipodi="http://sodipodi.sourceforge.net/DTD/sodipodi-0.dtd"
   xmlns="http://www.w3.org/2000/svg"
   xmlns:svg="http://www.w3.org/2000/svg"><sodipodi:namedview
     inkscape:document-units="mm"
     inkscape:zoom="4"
     inkscape:cx="143.75"
     inkscape:cy="99.25"
     id="namedview1"
     pagecolor="#ffffff"
     bordercolor="#000000"
     borderopacity="0.25"
     inkscape:showpageshadow="2"
     inkscape:pageopacity="0.0"
     inkscape:pagecheckerboard="0"
     inkscape:deskcolor="#d1d1d1"
     showgrid="false"
     inkscape:window-width="1210"
     inkscape:window-height="960"
     inkscape:window-x="0"
     inkscape:window-y="0"
     inkscape:window-maximized="1"
     inkscape:current-layer="layer2"><inkscape:grid
       id="grid1"
       units="mm"
       originx="0"
       originy="0"
       spacingx="1"
       spacingy="1"
       empcolor="#0099e5"
       empopacity="0.30196078"
       color="#0099e5"
       opacity="0.14901961"
       empspacing="5"
       dotted="false"
       gridanglex="30"
       gridanglez="30"
       visible="false" /></sodipodi:namedview><defs
     id="defs1" /><g
     inkscape:groupmode="layer"
     id="layer2"
     inkscape:label="Слой 6"
     style="display:inline;opacity:0.53"><g
       id="g4"><path
         id="path3"
         style="fill:none;stroke:#000000;stroke-width:0.264583px;stroke-linecap:butt;stroke-linejoin:miter;stroke-opacity:1"
         d="m 62.967216,31.07459 -6.855524,6.855523 h -1.837486 v 1.737492 l -5.201621,5.201619 h -6.92658 L 38.675481,41.3987 H 36.969578 L 35.19743,43.170848 H 28.268816 L 23.042214,37.944245 H 19.557979 L 17.806512,36.192777 H 16.078863 L 12.642175,32.756088 V 31.07459 H 10.978141 V 17.261737 h 3.386099 l 3.45276,3.332096 h 1.748214 l 5.203042,-5.203041 h 3.465939 l 5.185341,-5.185343 h 8.455943 l 0.0385,1.734714 2.28019,0.01159 -0.01553,-1.720605 8.351395,-0.0295 5.230914,5.1968 -0.01106,3.468502 5.219515,5.230997 z M 12.668477,18.932436 v 10.320818 h 1.705839 v 3.395141 l 1.713591,1.765525 h 3.471881 v 1.748213 h 3.482216 l 5.212215,5.212215 h 6.894282 l 2.696152,-2.696155 4.374605,4.374605 h 6.837955 l 3.445203,-3.445203 v -3.396884 h 3.480472 l 5.182629,-5.18263 v -6.94583 l -5.134959,-5.134958 v -3.48002 l -3.47285,-3.47285 -6.934591,-0.06304 -0.01272,1.723602 H 40.37118 v -1.686977 h -6.893121 l -5.167772,5.167773 H 24.85533 l -5.237342,5.237341 h -1.780059 l -3.488708,-3.488708 z" /></g></g></svg>
